ExampleDataM6
version=1
nRows=35
nColumns=19
inDegrees=no
endheader
time	l_ground_force_vx	l_ground_force_vy	l_ground_force_vz	l_ground_force_px	l_ground_force_py	l_ground_force_pz	ground_force_vx	ground_force_vy	ground_force_vz	ground_force_px	ground_force_py	ground_force_pz	l_ground_torque_x	l_ground_torque_y	l_ground_torque_z	ground_torque_x	ground_torque_y	ground_torque_z	
0	0	863.475266026923	0	0.0815124853473278	0	-0.0154164290181766	0	52.7078158941893	0	0.0450652595377628	0	0.0103995809780256	0	0	0	0	0	0
0.01	0	865.843511925567	0	0.0810036902186195	0	-0.0155454483528357	0	53.127866071073	0	0.0401767144694566	0	0.0110005933922009	0	0	0	0	0	0
0.02	0	867.62339879841	0	0.080422585192831	0	-0.0155845948130376	0	53.0697637019518	0	0.0430938137251018	0	0.0106834844734045	0	0	0	0	0	0
0.03	0	868.231315858468	0	0.0797610853601059	0	-0.0155605985370344	0	52.3948945756999	0	0.0558798305696078	0	0.00924952895191111	0	0	0	0	0	0
0.04	0	867.23064194551	0	0.0790424082280022	0	-0.0155097451086874	0	51.0322293845088	0	0.0764557838000686	0	0.00692714473172303	0	0	0	0	0	0
0.05	0	864.768754415919	0	0.0783444760774751	0	-0.0154603258304683	0	49.4667854839276	0	0.0965671530681951	0	0.00466806534292165	0	0	0	0	0	0
0.06	0	861.618781822077	0	0.0777865164758398	0	-0.0154347385458125	0	48.8217122754055	0	0.105113735156518	0	0.00379914195531066	0	0	0	0	0	0
0.07	0	858.545677893283	0	0.0774185161025741	0	-0.0154334401170265	0	50.1282636198073	0	0.0968827115699194	0	0.00497605670009193	0	0	0	0	0	0
0.08	0	855.312148005693	0	0.0771427483149916	0	-0.0154242333845919	0	53.4640796347241	0	0.0773908084799048	0	0.00756181877973977	0	0	0	0	0	0
0.09	0	850.898317045014	0	0.0768123483368865	0	-0.0153728739248895	0	57.9885405085808	0	0.0577106848936203	0	0.0101870811286816	0	0	0	0	0	0
0.1	0	844.681707052385	0	0.0763626872284105	0	-0.015272427858334	0	62.9905137201471	0	0.0453283744352148	0	0.0118596485065504	0	0	0	0	0	0
0.11	0	836.704576780312	0	0.0757972143719645	0	-0.0151362190427693	0	68.5670460868611	0	0.0410187325367868	0	0.012440452254713	0	0	0	0	0	0
0.12	0	827.373186721094	0	0.0751287594009181	0	-0.0149879301809803	0	75.0683430427825	0	0.0421179502221258	0	0.0122951104776998	0	0	0	0	0	0
0.13	0	817.45901430672	0	0.0743798955246837	0	-0.0148578200485541	0	82.3376474677699	0	0.0457504682947791	0	0.011836721904196	0	0	0	0	0	0
0.14	0	807.902015171888	0	0.0735925200829359	0	-0.0147602825911347	0	89.9446834084876	0	0.0497741768129589	0	0.0113192545018964	0	0	0	0	0	0
0.15	0	799.317522583061	0	0.0728310221453275	0	-0.0146796807209868	0	97.9603397534658	0	0.052956912580181	0	0.010794777749158	0	0	0	0	0	0
0.16	0	791.644225778835	0	0.0721825191979698	0	-0.0145964258367262	0	106.97394624897	0	0.0549914509104072	0	0.0102261880342107	0	0	0	0	0	0
0.17	0	784.348250748764	0	0.0717241912814016	0	-0.0145154855495006	0	117.350605218381	0	0.0562008552088896	0	0.00965490383505576	0	0	0	0	0	0
0.18	0	777.031804290408	0	0.0714791272117641	0	-0.0144570955687183	0	129.051986481011	0	0.05721609581277	0	0.00921011095929662	0	0	0	0	0	0
0.19	0	769.655056807344	0	0.0714109353285722	0	-0.0144295764366642	0	142.242645527211	0	0.0586964885690535	0	0.00900784557341311	0	0	0	0	0	0
0.2	0	762.153560063311	0	0.071426275160645	0	-0.0144177252751327	0	157.381037788715	0	0.0608663845335198	0	0.00906992216619475	0	0	0	0	0	0
0.21	0	753.763741906331	0	0.0713424952205582	0	-0.0143896831069546	0	174.522746594429	0	0.0633598644611855	0	0.00929288457250632	0	0	0	0	0	0
0.22	0	742.878183344768	0	0.0709292654262918	0	-0.0143149343270857	0	192.932926890208	0	0.0656933144692129	0	0.00953041291240556	0	0	0	0	0	0
0.23	0	728.083241480327	0	0.0700849045290497	0	-0.01418534636619	0	211.384780342561	0	0.0676266555324424	0	0.00972388351204177	0	0	0	0	0	0
0.24	0	709.313753699425	0	0.0689378711155158	0	-0.0140192629468328	0	228.861123715414	0	0.0690574896639313	0	0.00991924731526332	0	0	0	0	0	0
0.25	0	687.986717459201	0	0.0677300228118666	0	-0.0138418469692821	0	245.439586247849	0	0.0699202443830702	0	0.0101734781542826	0	0	0	0	0	0
0.26	0	666.281190106703	0	0.0666349634771937	0	-0.0136666849302954	0	262.37473424028	0	0.0702196798613027	0	0.010459680029511	0	0	0	0	0	0
0.27	0	646.094187788565	0	0.0656877291309415	0	-0.0135000576042601	0	280.915852786115	0	0.0700260094017778	0	0.0106679724091502	0	0	0	0	0	0
0.28	0	628.25190665888	0	0.06482498887951	0	-0.0133494890586566	0	301.356619697786	0	0.0694875630438682	0	0.0107231357480012	0	0	0	0	0	0
0.29	0	612.398975932359	0	0.0639637887616665	0	-0.013218695493434	0	323.050919303594	0	0.0688349087608536	0	0.0106733332239191	0	0	0	0	0	0
0.3	0	597.489797498975	0	0.0630523380791794	0	-0.0131033926469399	0	344.551549699504	0	0.0682649903968347	0	0.0106174024533247	0	0	0	0	0	0
0.31	0	582.472370318623	0	0.062052122059937	0	-0.0129895694539928	0	364.037189847263	0	0.0678648022843017	0	0.0105932837125169	0	0	0	0	0	0
0.32	0	566.942962730751	0	0.0609428228279192	0	-0.0128469352315963	0	380.365149372379	0	0.0676875934818766	0	0.0105909484023388	0	0	0	0	0	0
0.33	0	551.270238227458	0	0.0597584697207644	0	-0.0126346427811118	0	393.695863007542	0	0.0677865917736509	0	0.0106245574344731	0	0	0	0	0	0
0.34	0	535.676377106568	0	0.0585207644079141	0	-0.0123285114447443	0	405.048446935116	0	0.0681606328147086	0	0.0107370827147989	0	0	0	0	0	0
